<svg width="168" height="94" viewBox="0 0 168 94" fill="none" xmlns="http://www.w3.org/2000/svg">
<g filter="url(#filter0_d_43_109)">
<circle cx="47" cy="41" r="20" fill="#393939"/>
<path fill-rule="evenodd" clip-rule="evenodd" d="M47 78C67.4345 78 84 61.4345 84 41C84 20.5655 67.4345 4 47 4C26.5655 4 10 20.5655 10 41C10 61.4345 26.5655 78 47 78ZM47 45.1625C49.2989 45.1625 51.1625 43.2989 51.1625 41C51.1625 38.7011 49.2989 36.8375 47 36.8375C44.7011 36.8375 42.8375 38.7011 42.8375 41C42.8375 43.2989 44.7011 45.1625 47 45.1625Z" fill="#2A2727"/>
<path fill-rule="evenodd" clip-rule="evenodd" d="M47 68.75C62.3259 68.75 74.75 56.3259 74.75 41C74.75 25.6741 62.3259 13.25 47 13.25C31.6741 13.25 19.25 25.6741 19.25 41C19.25 56.3259 31.6741 68.75 47 68.75ZM47 45.1625C49.2989 45.1625 51.1625 43.2989 51.1625 41C51.1625 38.7011 49.2989 36.8375 47 36.8375C44.7011 36.8375 42.8375 38.7011 42.8375 41C42.8375 43.2989 44.7011 45.1625 47 45.1625Z" fill="#393939"/>
<path fill-rule="evenodd" clip-rule="evenodd" d="M47 60.5792C57.8133 60.5792 66.5792 51.8133 66.5792 41C66.5792 30.1867 57.8133 21.4208 47 21.4208C36.1868 21.4208 27.4209 30.1867 27.4209 41C27.4209 51.8133 36.1868 60.5792 47 60.5792ZM47 45.1625C49.2989 45.1625 51.1625 43.2989 51.1625 41C51.1625 38.7011 49.2989 36.8375 47 36.8375C44.7011 36.8375 42.8375 38.7011 42.8375 41C42.8375 43.2989 44.7011 45.1625 47 45.1625Z" fill="#79D800"/>
<circle cx="84" cy="41" r="20" fill="#393939"/>
<path fill-rule="evenodd" clip-rule="evenodd" d="M84 78C104.435 78 121 61.4345 121 41C121 20.5655 104.435 4 84 4C63.5655 4 47 20.5655 47 41C47 61.4345 63.5655 78 84 78ZM84 45.1625C86.2989 45.1625 88.1625 43.2989 88.1625 41C88.1625 38.7011 86.2989 36.8375 84 36.8375C81.7011 36.8375 79.8375 38.7011 79.8375 41C79.8375 43.2989 81.7011 45.1625 84 45.1625Z" fill="#2A2727"/>
<path fill-rule="evenodd" clip-rule="evenodd" d="M84 68.75C99.3259 68.75 111.75 56.3259 111.75 41C111.75 25.6741 99.3259 13.25 84 13.25C68.6741 13.25 56.25 25.6741 56.25 41C56.25 56.3259 68.6741 68.75 84 68.75ZM84 45.1625C86.2989 45.1625 88.1625 43.2989 88.1625 41C88.1625 38.7011 86.2989 36.8375 84 36.8375C81.7011 36.8375 79.8375 38.7011 79.8375 41C79.8375 43.2989 81.7011 45.1625 84 45.1625Z" fill="#393939"/>
<path fill-rule="evenodd" clip-rule="evenodd" d="M84 60.5792C94.8133 60.5792 103.579 51.8133 103.579 41C103.579 30.1867 94.8133 21.4208 84 21.4208C73.1868 21.4208 64.4209 30.1867 64.4209 41C64.4209 51.8133 73.1868 60.5792 84 60.5792ZM84 45.1625C86.2989 45.1625 88.1625 43.2989 88.1625 41C88.1625 38.7011 86.2989 36.8375 84 36.8375C81.7011 36.8375 79.8375 38.7011 79.8375 41C79.8375 43.2989 81.7011 45.1625 84 45.1625Z" fill="#D8D000"/>
<circle cx="121" cy="41" r="20" fill="#393939"/>
<path fill-rule="evenodd" clip-rule="evenodd" d="M121 78C141.435 78 158 61.4345 158 41C158 20.5655 141.435 4 121 4C100.565 4 84 20.5655 84 41C84 61.4345 100.565 78 121 78ZM121 45.1625C123.299 45.1625 125.163 43.2989 125.163 41C125.163 38.7011 123.299 36.8375 121 36.8375C118.701 36.8375 116.838 38.7011 116.838 41C116.838 43.2989 118.701 45.1625 121 45.1625Z" fill="#2A2727"/>
<path fill-rule="evenodd" clip-rule="evenodd" d="M121 68.75C136.326 68.75 148.75 56.3259 148.75 41C148.75 25.6741 136.326 13.25 121 13.25C105.674 13.25 93.25 25.6741 93.25 41C93.25 56.3259 105.674 68.75 121 68.75ZM121 45.1625C123.299 45.1625 125.163 43.2989 125.163 41C125.163 38.7011 123.299 36.8375 121 36.8375C118.701 36.8375 116.838 38.7011 116.838 41C116.838 43.2989 118.701 45.1625 121 45.1625Z" fill="#393939"/>
<path fill-rule="evenodd" clip-rule="evenodd" d="M121 60.5792C131.813 60.5792 140.579 51.8133 140.579 41C140.579 30.1867 131.813 21.4208 121 21.4208C110.187 21.4208 101.421 30.1867 101.421 41C101.421 51.8133 110.187 60.5792 121 60.5792ZM121 45.1625C123.299 45.1625 125.163 43.2989 125.163 41C125.163 38.7011 123.299 36.8375 121 36.8375C118.701 36.8375 116.838 38.7011 116.838 41C116.838 43.2989 118.701 45.1625 121 45.1625Z" fill="#D80000"/>
</g>
<defs>
<filter id="filter0_d_43_109" x="0" y="0" width="168" height="94" filterUnits="userSpaceOnUse" color-interpolation-filters="sRGB">
<feFlood flood-opacity="0" result="BackgroundImageFix"/>
<feColorMatrix in="SourceAlpha" type="matrix" values="0 0 0 0 0 0 0 0 0 0 0 0 0 0 0 0 0 0 127 0" result="hardAlpha"/>
<feOffset dy="6"/>
<feGaussianBlur stdDeviation="5"/>
<feComposite in2="hardAlpha" operator="out"/>
<feColorMatrix type="matrix" values="0 0 0 0 0 0 0 0 0 0 0 0 0 0 0 0 0 0 0.49 0"/>
<feBlend mode="normal" in2="BackgroundImageFix" result="effect1_dropShadow_43_109"/>
<feBlend mode="normal" in="SourceGraphic" in2="effect1_dropShadow_43_109" result="shape"/>
</filter>
</defs>
</svg>
