<svg width="148" height="74" viewBox="0 0 148 74" fill="none" xmlns="http://www.w3.org/2000/svg">
<circle cx="37" cy="37" r="20" fill="#393939"/>
<path fill-rule="evenodd" clip-rule="evenodd" d="M37 74C57.4345 74 74 57.4345 74 37C74 16.5655 57.4345 0 37 0C16.5655 0 0 16.5655 0 37C0 57.4345 16.5655 74 37 74ZM37 41.1625C39.2989 41.1625 41.1625 39.2989 41.1625 37C41.1625 34.7011 39.2989 32.8375 37 32.8375C34.7011 32.8375 32.8375 34.7011 32.8375 37C32.8375 39.2989 34.7011 41.1625 37 41.1625Z" fill="#2A2727"/>
<path fill-rule="evenodd" clip-rule="evenodd" d="M37 64.75C52.3259 64.75 64.75 52.3259 64.75 37C64.75 21.6741 52.3259 9.25 37 9.25C21.6741 9.25 9.25 21.6741 9.25 37C9.25 52.3259 21.6741 64.75 37 64.75ZM37 41.1625C39.2989 41.1625 41.1625 39.2989 41.1625 37C41.1625 34.7011 39.2989 32.8375 37 32.8375C34.7011 32.8375 32.8375 34.7011 32.8375 37C32.8375 39.2989 34.7011 41.1625 37 41.1625Z" fill="#393939"/>
<path fill-rule="evenodd" clip-rule="evenodd" d="M37.0001 56.5792C47.8133 56.5792 56.5792 47.8133 56.5792 37C56.5792 26.1867 47.8133 17.4208 37.0001 17.4208C26.1868 17.4208 17.4209 26.1867 17.4209 37C17.4209 47.8133 26.1868 56.5792 37.0001 56.5792ZM37.0001 41.1625C39.2989 41.1625 41.1626 39.2989 41.1626 37C41.1626 34.7011 39.2989 32.8375 37.0001 32.8375C34.7012 32.8375 32.8376 34.7011 32.8376 37C32.8376 39.2989 34.7012 41.1625 37.0001 41.1625Z" fill="#79D800"/>
<circle cx="74" cy="37" r="20" fill="#393939"/>
<path fill-rule="evenodd" clip-rule="evenodd" d="M74 74C94.4345 74 111 57.4345 111 37C111 16.5655 94.4345 0 74 0C53.5655 0 37 16.5655 37 37C37 57.4345 53.5655 74 74 74ZM74 41.1625C76.2989 41.1625 78.1625 39.2989 78.1625 37C78.1625 34.7011 76.2989 32.8375 74 32.8375C71.7011 32.8375 69.8375 34.7011 69.8375 37C69.8375 39.2989 71.7011 41.1625 74 41.1625Z" fill="#2A2727"/>
<path fill-rule="evenodd" clip-rule="evenodd" d="M74 64.75C89.3259 64.75 101.75 52.3259 101.75 37C101.75 21.6741 89.3259 9.25 74 9.25C58.6741 9.25 46.25 21.6741 46.25 37C46.25 52.3259 58.6741 64.75 74 64.75ZM74 41.1625C76.2989 41.1625 78.1625 39.2989 78.1625 37C78.1625 34.7011 76.2989 32.8375 74 32.8375C71.7011 32.8375 69.8375 34.7011 69.8375 37C69.8375 39.2989 71.7011 41.1625 74 41.1625Z" fill="#393939"/>
<path fill-rule="evenodd" clip-rule="evenodd" d="M74.0001 56.5792C84.8133 56.5792 93.5792 47.8133 93.5792 37C93.5792 26.1867 84.8133 17.4208 74.0001 17.4208C63.1868 17.4208 54.4209 26.1867 54.4209 37C54.4209 47.8133 63.1868 56.5792 74.0001 56.5792ZM74.0001 41.1625C76.2989 41.1625 78.1626 39.2989 78.1626 37C78.1626 34.7011 76.2989 32.8375 74.0001 32.8375C71.7012 32.8375 69.8376 34.7011 69.8376 37C69.8376 39.2989 71.7012 41.1625 74.0001 41.1625Z" fill="#D8D000"/>
<circle cx="111" cy="37" r="20" fill="#393939"/>
<path fill-rule="evenodd" clip-rule="evenodd" d="M111 74C131.435 74 148 57.4345 148 37C148 16.5655 131.435 0 111 0C90.5655 0 74 16.5655 74 37C74 57.4345 90.5655 74 111 74ZM111 41.1625C113.299 41.1625 115.163 39.2989 115.163 37C115.163 34.7011 113.299 32.8375 111 32.8375C108.701 32.8375 106.838 34.7011 106.838 37C106.838 39.2989 108.701 41.1625 111 41.1625Z" fill="#2A2727"/>
<path fill-rule="evenodd" clip-rule="evenodd" d="M111 64.75C126.326 64.75 138.75 52.3259 138.75 37C138.75 21.6741 126.326 9.25 111 9.25C95.6741 9.25 83.25 21.6741 83.25 37C83.25 52.3259 95.6741 64.75 111 64.75ZM111 41.1625C113.299 41.1625 115.163 39.2989 115.163 37C115.163 34.7011 113.299 32.8375 111 32.8375C108.701 32.8375 106.838 34.7011 106.838 37C106.838 39.2989 108.701 41.1625 111 41.1625Z" fill="#393939"/>
<path fill-rule="evenodd" clip-rule="evenodd" d="M111 56.5792C121.813 56.5792 130.579 47.8133 130.579 37C130.579 26.1867 121.813 17.4208 111 17.4208C100.187 17.4208 91.4209 26.1867 91.4209 37C91.4209 47.8133 100.187 56.5792 111 56.5792ZM111 41.1625C113.299 41.1625 115.163 39.2989 115.163 37C115.163 34.7011 113.299 32.8375 111 32.8375C108.701 32.8375 106.838 34.7011 106.838 37C106.838 39.2989 108.701 41.1625 111 41.1625Z" fill="#D80000"/>
</svg>
