<svg width="74" height="74" viewBox="0 0 74 74" fill="none" xmlns="http://www.w3.org/2000/svg">
<circle cx="37" cy="37" r="20" fill="#393939"/>
<path fill-rule="evenodd" clip-rule="evenodd" d="M37 74C57.4345 74 74 57.4345 74 37C74 16.5655 57.4345 0 37 0C16.5655 0 0 16.5655 0 37C0 57.4345 16.5655 74 37 74ZM37 41.1625C39.2989 41.1625 41.1625 39.2989 41.1625 37C41.1625 34.7011 39.2989 32.8375 37 32.8375C34.7011 32.8375 32.8375 34.7011 32.8375 37C32.8375 39.2989 34.7011 41.1625 37 41.1625Z" fill="#2A2727"/>
<path fill-rule="evenodd" clip-rule="evenodd" d="M37 64.75C52.3259 64.75 64.75 52.3259 64.75 37C64.75 21.6741 52.3259 9.25 37 9.25C21.6741 9.25 9.25 21.6741 9.25 37C9.25 52.3259 21.6741 64.75 37 64.75ZM37 41.1625C39.2989 41.1625 41.1625 39.2989 41.1625 37C41.1625 34.7011 39.2989 32.8375 37 32.8375C34.7011 32.8375 32.8375 34.7011 32.8375 37C32.8375 39.2989 34.7011 41.1625 37 41.1625Z" fill="#393939"/>
<path fill-rule="evenodd" clip-rule="evenodd" d="M37 56.5792C47.8133 56.5792 56.5792 47.8133 56.5792 37C56.5792 26.1867 47.8133 17.4208 37 17.4208C26.1868 17.4208 17.4209 26.1867 17.4209 37C17.4209 47.8133 26.1868 56.5792 37 56.5792ZM37 41.1625C39.2989 41.1625 41.1625 39.2989 41.1625 37C41.1625 34.7011 39.2989 32.8375 37 32.8375C34.7011 32.8375 32.8375 34.7011 32.8375 37C32.8375 39.2989 34.7011 41.1625 37 41.1625Z" fill="#79D800"/>
</svg>
